<?xml version="1.0" encoding="UTF-8"?>
<svg version="1.1" xmlns="http://www.w3.org/2000/svg" width="308" height="253">
<path d="M0 0 C38.99442131 6.83375812 80.1320749 36.59797463 108.77734375 62.9609375 C110.79562103 64.81250295 112.85349135 66.59833 114.9375 68.375 C120.22657407 72.96900068 125.09005647 78.00882579 130 83 C133.31645316 81.55993075 135.43717424 79.77544802 137.94140625 77.18359375 C139.05563965 76.04386108 139.05563965 76.04386108 140.19238281 74.88110352 C140.97452148 74.07471436 141.75666016 73.2683252 142.5625 72.4375 C149.09706662 65.80599486 155.61418403 59.67473251 163 54 C164.00289062 53.18015625 165.00578125 52.3603125 166.0390625 51.515625 C180.88191396 39.41841298 197.04484113 28.88705107 214 20 C214.64211426 19.66307129 215.28422852 19.32614258 215.94580078 18.97900391 C252.42574952 0 252.42574952 0 263 0 C264.20005531 2.0978523 265.38502983 4.2020249 266.5625 6.3125 C266.90474609 6.90740234 267.24699219 7.50230469 267.59960938 8.11523438 C268.47766262 9.70282559 269.24586268 11.34993931 270 13 C269 16 269 16 266.95654297 17.08398438 C266.06080566 17.41720703 265.16506836 17.75042969 264.2421875 18.09375 C263.23567139 18.47837402 262.22915527 18.86299805 261.19213867 19.25927734 C260.09748291 19.66871582 259.00282715 20.0781543 257.875 20.5 C232.47174149 30.35711198 208.80493678 42.59976249 187 59 C186.46890625 59.39364746 185.9378125 59.78729492 185.390625 60.19287109 C170.45053348 71.27555427 156.9768553 83.69182073 144 97 C145.416301 100.06663711 147.10877183 102.5993475 149.1875 105.2578125 C149.80367187 106.04800781 150.41984375 106.83820313 151.0546875 107.65234375 C151.69664062 108.46832031 152.33859375 109.28429687 153 110.125 C153.64195312 110.94871094 154.28390625 111.77242188 154.9453125 112.62109375 C158.30423975 116.95786732 158.30423975 116.95786732 162 121 C163.68870803 119.16776705 165.37609663 117.33435264 167.0625 115.5 C167.57055176 114.94828125 168.07860352 114.3965625 168.60205078 113.828125 C171.25815525 110.93455144 173.85378204 108.01269589 176.375 105 C200.96967567 76.78330558 238.75484197 52.81446242 274 41 C277.5 40.8125 277.5 40.8125 280 41 C282.08706054 46.28722005 282.55313769 51.39472289 283 57 C278.48264186 59.01780713 273.96064702 61.02147067 269.4140625 62.97265625 C247.14407652 72.62730119 226.39106851 85.09577409 208 101 C206.86304688 101.97066406 206.86304688 101.97066406 205.703125 102.9609375 C193.95432234 113.2509962 182.18741393 124.32448315 173 137 C174.41072134 140.72672973 176.09480161 144.17178063 178.00390625 147.66796875 C178.57947266 148.72564453 179.15503906 149.78332031 179.74804688 150.87304688 C180.34681641 151.96681641 180.94558594 153.06058594 181.5625 154.1875 C182.75149523 156.36838429 183.94030679 158.54936873 185.12890625 160.73046875 C185.65556885 161.69364014 186.18223145 162.65681152 186.72485352 163.64916992 C187.50517867 165.08775904 188.26809208 166.53618417 189 168 C189.94359375 166.76636719 189.94359375 166.76636719 190.90625 165.5078125 C198.93374867 155.02900061 206.96201539 144.64051692 216 135 C216.45971191 134.50628906 216.91942383 134.01257813 217.39306641 133.50390625 C232.857449 117.02773908 251.25028709 104.51903855 271.125 93.9375 C272.03862305 93.44749512 272.95224609 92.95749023 273.89355469 92.45263672 C274.75625977 92.00291504 275.61896484 91.55319336 276.5078125 91.08984375 C277.27754395 90.68628662 278.04727539 90.28272949 278.84033203 89.86694336 C281 89 281 89 285 89 C285.4186926 104.97730956 285.4186926 104.97730956 282.421875 109.25 C280.02560492 110.81201309 277.63978631 111.89675138 275 113 C272.81758198 114.15829714 270.65205089 115.34871351 268.5 116.5625 C267.9126709 116.8910498 267.3253418 117.21959961 266.72021484 117.55810547 C243.98988524 130.58389233 224.0483205 150.59255362 209.34765625 172.12792969 C207.9967816 174.00447077 206.54274851 175.72802453 205.03125 177.4765625 C202.14770482 181.06484071 199.65362633 184.34649698 199 189 C200.08705724 196.24454061 203.12701671 202.97636236 206.23632812 209.55908203 C207.15397049 212.49213459 206.98824504 214.10703685 206 217 C203.3828125 218.8359375 203.3828125 218.8359375 200.125 220.375 C199.05507812 220.89835938 197.98515625 221.42171875 196.8828125 221.9609375 C194 223 194 223 191 222 C190.05078125 220.15234375 190.05078125 220.15234375 189.3125 217.9375 C188.93544922 216.83728516 188.93544922 216.83728516 188.55078125 215.71484375 C188.36902344 215.14894531 188.18726563 214.58304688 188 214 C186.14819003 216.77771496 185.34035944 218.87456314 184.3125 222 C182.80490845 225.8273911 182.37833846 226.76717633 178.75 229 C177.5125 229.33 176.275 229.66 175 230 C173.96552734 230.29970703 173.96552734 230.29970703 172.91015625 230.60546875 C169.4808875 231.55697907 166.57487161 232 163 232 C163.5003541 224.81108886 165.21188079 218.7857165 167.75 212.0625 C168.08515625 211.13759766 168.4203125 210.21269531 168.765625 209.25976562 C170.50841668 204.54960706 172.41695685 200.15406263 174.828125 195.74609375 C177.0688219 191.28698892 177.58830984 188.90740248 176 184 C174.22651624 179.86907142 172.2400495 175.87347306 170.1875 171.875 C169.65318359 170.80378906 169.11886719 169.73257813 168.56835938 168.62890625 C166.05372651 163.6615011 163.59791384 159.27836463 160 155 C154.92685996 162.91118765 149.91267453 170.86477988 145.3125 179.0625 C144.961875 179.65619385 144.61125 180.2498877 144.25 180.86157227 C141.79929236 185.34382073 141.74749433 188.10431396 143 193 C144.13847672 196.31804372 145.43329154 199.56173517 146.75 202.8125 C149.51912511 209.85726907 152.02954421 216.89378601 154.0625 224.1875 C154.2780957 224.94716064 154.49369141 225.70682129 154.71582031 226.48950195 C156.12905979 231.74188042 156.12905979 231.74188042 155 234 C151.5020607 235.32421988 147.94552923 235.09945529 144.25 235.0625 C143.07953125 235.05347656 141.9090625 235.04445312 140.703125 235.03515625 C139.81109375 235.02355469 138.9190625 235.01195312 138 235 C136.9929564 231.8980736 135.99559195 228.79311902 135 225.6875 C134.71382812 224.80642578 134.42765625 223.92535156 134.1328125 223.01757812 C133.86210937 222.17001953 133.59140625 221.32246094 133.3125 220.44921875 C133.06113281 219.66893311 132.80976563 218.88864746 132.55078125 218.0847168 C132 216 132 216 132 213 C131.34 213 130.68 213 130 213 C129.81824219 213.66644531 129.63648438 214.33289063 129.44921875 215.01953125 C127.6328125 221.6796875 125.81640625 228.33984375 124 235 C117.59370576 235.20852314 112.07027358 235.1583195 106 233 C107.29923049 225.39518491 109.39490183 218.23488923 111.875 210.9375 C112.21402344 209.91333984 112.55304688 208.88917969 112.90234375 207.83398438 C114.7390327 202.36931099 116.72099129 197.16476489 119.36767578 192.03735352 C120.4175408 188.65468031 119.44532488 186.03405146 118.07958984 182.86279297 C117.71043457 182.16299316 117.3412793 181.46319336 116.9609375 180.7421875 C116.54827637 179.95626221 116.13561523 179.17033691 115.71044922 178.3605957 C115.04940186 177.13022583 115.04940186 177.13022583 114.375 175.875 C113.92785645 175.03348389 113.48071289 174.19196777 113.02001953 173.32495117 C109.63248627 167.01623143 106.02309732 160.92807386 102 155 C99.17223666 157.49216761 97.66341582 160.22154198 95.93359375 163.55078125 C95.36576172 164.64197266 94.79792969 165.73316406 94.21289062 166.85742188 C93.62701172 167.99759766 93.04113281 169.13777344 92.4375 170.3125 C91.84775391 171.44107422 91.25800781 172.56964844 90.65039062 173.73242188 C85.52321482 182.21813488 85.52321482 182.21813488 84.61157227 191.53857422 C85.20796509 192.78405029 85.20796509 192.78405029 85.81640625 194.0546875 C86.24904785 194.99207764 86.68168945 195.92946777 87.12744141 196.89526367 C87.83779541 198.37023315 87.83779541 198.37023315 88.5625 199.875 C99 222.61474187 99 222.61474187 99 232 C83.25129683 230.54178674 83.25129683 230.54178674 79.0625 225.8125 C78.711875 224.884375 78.36125 223.95625 78 223 C77.72671875 222.34128906 77.4534375 221.68257812 77.171875 221.00390625 C75.88121054 217.80657838 75 215.4856945 75 212 C74.34 212 73.68 212 73 212 C72.34 215.3 71.68 218.6 71 222 C64.68368172 221.59683075 60.35006016 219.28767869 55 216 C55.52248194 210.09396992 56.80937651 205.27540963 59.0625 199.8125 C61.86557906 193.59799661 61.86557906 193.59799661 62 187 C60.45403614 184.02808221 58.59797906 181.31042944 56.6875 178.5625 C56.14279053 177.76553711 55.59808105 176.96857422 55.03686523 176.14746094 C43.63343579 159.63454181 31.00462299 144.24934832 15 132 C13.99453125 131.19046875 12.9890625 130.3809375 11.953125 129.546875 C6.26347603 124.99498078 0.45212351 120.91382381 -5.8125 117.1875 C-6.44728271 116.80327881 -7.08206543 116.41905762 -7.73608398 116.02319336 C-10.32723969 114.47612799 -12.842247 113.06170926 -15.65625 111.9609375 C-18.09132738 110.94632192 -19.27336049 109.98601073 -21 108 C-21.62182617 105.96923828 -21.62182617 105.96923828 -21.91796875 103.6953125 C-22.07978638 102.47509399 -22.07978638 102.47509399 -22.24487305 101.23022461 C-22.62048435 97.48669189 -22.84385231 93.75925575 -23 90 C-18.79055643 88.59685214 -16.29178915 90.35616751 -12.5 92.1875 C-11.75242432 92.54626221 -11.00484863 92.90502441 -10.23461914 93.2746582 C5.22302156 100.90495592 19.01512262 110.72215545 32 122 C32.54205078 122.46760742 33.08410156 122.93521484 33.64257812 123.41699219 C48.73161664 136.5325582 60.92736285 151.39104427 72 168 C72.37286133 167.33468262 72.74572266 166.66936523 73.12988281 165.98388672 C74.83411959 162.94619839 76.54202472 159.91058776 78.25 156.875 C78.83652344 155.82828125 79.42304687 154.7815625 80.02734375 153.703125 C82.85847978 148.67706329 85.69416629 143.72963338 89 139 C81.8093881 121.97395343 61.27751021 106.02528465 46.74316406 95.29443359 C44.96515129 93.97412215 43.21246329 92.6247299 41.4609375 91.26953125 C29.453553 82.07777212 16.74695349 74.48432203 2.9296875 68.3359375 C2.2264032 68.02278091 1.5231189 67.70962433 0.79852295 67.38697815 C-2.7403857 65.81908328 -6.28877691 64.27849834 -9.85351562 62.77026367 C-11.16539186 62.20237421 -12.47724202 61.6344245 -13.7890625 61.06640625 C-14.96162598 60.57084229 -16.13418945 60.07527832 -17.34228516 59.56469727 C-20 58 -20 58 -20.91650391 56.00830078 C-21.0428377 52.96964056 -20.42588869 50.27116962 -19.75 47.3125 C-19.49734375 46.15363281 -19.2446875 44.99476562 -18.984375 43.80078125 C-18.65953125 42.87652344 -18.3346875 41.95226563 -18 41 C-14.23610673 39.74536891 -13.28236618 40.43839487 -9.6875 41.95703125 C-8.08841797 42.62883423 -8.08841797 42.62883423 -6.45703125 43.31420898 C-5.31621094 43.80864502 -4.17539062 44.30308105 -3 44.8125 C-1.82824219 45.316604 -0.65648437 45.82070801 0.55078125 46.34008789 C22.48657785 55.90403528 42.42421597 67.89486308 61 83 C61.52948242 83.42651855 62.05896484 83.85303711 62.60449219 84.29248047 C76.12566759 95.26180613 88.85502467 107.62245749 100 121 C104.3524533 115.71981289 108.69551779 110.43209773 112.9375 105.0625 C113.48277344 104.37285156 114.02804688 103.68320313 114.58984375 102.97265625 C115.96649208 101.04687396 116.96780195 99.12436585 118 97 C106.30857721 84.98378797 106.30857721 84.98378797 93.6171875 74.05859375 C90.80042107 71.84301776 88.09504877 69.52054996 85.375 67.1875 C74.05491513 57.74675477 61.76849789 49.35233909 49 42 C48.23655273 41.55688477 47.47310547 41.11376953 46.68652344 40.65722656 C32.58044155 32.53225365 18.12945413 25.97358203 3 20 C1.09860815 19.24045937 -0.80245202 18.48008774 -2.703125 17.71875 C-3.52973633 17.38810547 -4.35634766 17.05746094 -5.20800781 16.71679688 C-5.79936523 16.48025391 -6.39072266 16.24371094 -7 16 C-6.66830805 9.69785303 -3.32676012 5.14783064 0 0 Z M130 112 C126.73712951 115.4422249 123.88843762 119.24196062 121 123 C120.56010742 123.56638184 120.12021484 124.13276367 119.66699219 124.71630859 C118.35864468 126.41965609 117.08173197 128.14236992 115.8125 129.875 C115.03519531 130.92429688 114.25789062 131.97359375 113.45703125 133.0546875 C111.65643828 135.84751614 111.65643828 135.84751614 112.72558594 138.37744141 C113.99898175 140.99790459 115.38650336 143.43787491 116.93359375 145.90625 C117.50013672 146.81503906 118.06667969 147.72382813 118.65039062 148.66015625 C119.24013672 149.59730469 119.82988281 150.53445312 120.4375 151.5 C121.6030951 153.36443924 122.76846693 155.22901809 123.93359375 157.09375 C124.44978271 157.91552734 124.96597168 158.73730469 125.49780273 159.58398438 C126.56397829 161.29873707 127.58249464 163.04353411 128.56665039 164.80664062 C129.03965576 165.53044922 129.51266113 166.25425781 130 167 C130.66 167 131.32 167 132 167 C132.81791016 165.49373047 132.81791016 165.49373047 133.65234375 163.95703125 C134.41242429 162.57461884 135.17427527 161.193179 135.9375 159.8125 C136.33557861 159.0908667 136.73365723 158.3692334 137.14379883 157.62573242 C140.50716289 151.63858876 144.34316272 146.19515131 148.54296875 140.76953125 C150.26236743 138.16799894 150.26236743 138.16799894 149.640625 135.671875 C147.21090754 131.71490657 144.42857768 128.08665901 141.5625 124.4375 C140.39711321 122.93621515 139.23174793 121.43491362 138.06640625 119.93359375 C137.2921228 118.9444397 137.2921228 118.9444397 136.50219727 117.93530273 C135.44213109 116.56960396 134.42246364 115.17208088 133.43334961 113.75415039 C132.96034424 113.17528076 132.48733887 112.59641113 132 112 C131.34 112 130.68 112 130 112 Z " fill="#109A61" transform="translate(23,18)"/>
<path d="M0 0 C7.49342532 4.88953235 13.44171191 10.87173896 15.6328125 19.8046875 C17.08939553 29.18508219 15.79445297 37.57586407 10.515625 45.6171875 C5.79129678 51.46217033 -0.48983267 55.91567276 -7.9765625 57.3203125 C-18.25810848 58.23992292 -26.33057613 56.6196019 -34.3515625 49.9453125 C-40.04324056 44.56346369 -43.50875601 38.91134365 -44.3125 31.0234375 C-44.41590689 21.88226862 -43.06389209 15.35151627 -38.2890625 7.5703125 C-28.15176676 -2.29300227 -13.18957846 -7.0115603 0 0 Z " fill="#EB5A28" transform="translate(167.9765625,2.6796875)"/>
</svg>
